<svg width="56" height="56" viewBox="0 0 56 56" fill="none" xmlns="http://www.w3.org/2000/svg">
<rect opacity="0.8" x="0.5" y="0.5" width="55" height="55" rx="7.5" fill="white" stroke="#E8E9EC"/>
<path d="M37.6016 28.24C37.6016 27.5646 37.5362 26.8674 37.4273 26.2139H27.9939V30.07H33.3968C33.179 31.3118 32.46 32.4011 31.3925 33.0983L34.6169 35.6037C36.5122 33.839 37.6016 31.2682 37.6016 28.24Z" fill="#4280EF"/>
<path d="M27.9938 38.0003C30.6953 38.0003 32.961 37.1071 34.6168 35.582L31.3924 33.0984C30.4992 33.7084 29.3446 34.057 27.9938 34.057C25.3795 34.057 23.1791 32.2923 22.373 29.9395L19.0615 32.4884C20.7608 35.8653 24.203 38.0003 27.9938 38.0003Z" fill="#34A353"/>
<path d="M22.3733 29.9168C21.9594 28.675 21.9594 27.3243 22.3733 26.0825L19.0618 23.5117C17.6457 26.3439 17.6457 29.6772 19.0618 32.4876L22.3733 29.9168Z" fill="#F6B704"/>
<path d="M27.9938 21.9654C29.4099 21.9437 30.8042 22.4883 31.8282 23.4687L34.6821 20.5929C32.8739 18.8936 30.4774 17.9786 27.9938 18.0004C24.203 18.0004 20.7608 20.1354 19.0615 23.5123L22.373 26.083C23.1791 23.7083 25.3795 21.9654 27.9938 21.9654Z" fill="#E54335"/>
</svg>
